<svg width="139" height="109" viewBox="0 0 139 109" fill="none" xmlns="http://www.w3.org/2000/svg">
<ellipse cx="70" cy="32.5968" rx="31" ry="11.5" transform="rotate(123.611 70 32.5968)" fill="#3191DF" fill-opacity="0.2" stroke="#3191DF" stroke-linecap="round" stroke-dasharray="4 4"/>
<ellipse cx="70" cy="32.5968" rx="31" ry="11.5" transform="rotate(60 70 32.5968)" fill="#3191DF" fill-opacity="0.2" stroke="#3191DF" stroke-linecap="round" stroke-dasharray="4 4"/>
<ellipse cx="70" cy="32.5968" rx="31" ry="11.5" transform="rotate(-180 70 32.5968)" fill="#3191DF" fill-opacity="0.2" stroke="#3191DF" stroke-linecap="round" stroke-dasharray="4 4"/>
<circle cx="70" cy="33" r="5" fill="#3191DF" fill-opacity="0.9"/>
<rect x="1" y="69.1936" width="129" height="31" rx="5" fill="#1D7BC7" fill-opacity="0.15"/>
<rect x="0.5" y="68.6936" width="130" height="32" rx="5.5" stroke="#3191DF" stroke-opacity="0.45" stroke-linejoin="round" stroke-dasharray="6 6"/>
<rect x="10.5" y="77.6936" width="128" height="30" rx="4.5" fill="#213A50"/>
<rect x="10.5" y="77.6936" width="128" height="30" rx="4.5" stroke="#3191DF" stroke-linejoin="round"/>
<path d="M22.7102 92.8072V92.1254L28.1989 89.33V90.4209L23.9886 92.4493L24.0227 92.3811V92.5516L23.9886 92.4834L28.1989 94.5118V95.6027L22.7102 92.8072ZM33.1602 96.6936H30.467V87.9663H33.2795C34.1261 87.9663 34.8505 88.141 35.4528 88.4905C36.055 88.8371 36.5167 89.3356 36.8377 89.9862C37.1587 90.6339 37.3192 91.4095 37.3192 92.3129C37.3192 93.222 37.1573 94.0047 36.8335 94.6609C36.5096 95.3143 36.038 95.8172 35.4187 96.1695C34.7994 96.5189 34.0465 96.6936 33.1602 96.6936ZM31.5238 95.7561H33.092C33.8136 95.7561 34.4116 95.6169 34.886 95.3385C35.3604 95.0601 35.7141 94.6638 35.9471 94.1496C36.18 93.6354 36.2965 93.0231 36.2965 92.3129C36.2965 91.6084 36.1815 91.0018 35.9513 90.4933C35.7212 89.982 35.3775 89.5899 34.9201 89.3172C34.4627 89.0416 33.8931 88.9038 33.2113 88.9038H31.5238V95.7561ZM38.9556 96.6936V90.1481H39.9613V96.6936H38.9556ZM39.467 89.0572C39.271 89.0572 39.1019 88.9905 38.9599 88.857C38.8207 88.7234 38.7511 88.5629 38.7511 88.3754C38.7511 88.1879 38.8207 88.0274 38.9599 87.8939C39.1019 87.7604 39.271 87.6936 39.467 87.6936C39.663 87.6936 39.8306 87.7604 39.9698 87.8939C40.1119 88.0274 40.1829 88.1879 40.1829 88.3754C40.1829 88.5629 40.1119 88.7234 39.9698 88.857C39.8306 88.9905 39.663 89.0572 39.467 89.0572ZM46.4396 91.6141L45.5362 91.8697C45.4794 91.7192 45.3956 91.5729 45.2848 91.4308C45.1768 91.2859 45.0291 91.1666 44.8416 91.0729C44.6541 90.9791 44.4141 90.9322 44.1214 90.9322C43.7209 90.9322 43.3871 91.0246 43.12 91.2092C42.8558 91.391 42.7237 91.6226 42.7237 91.9038C42.7237 92.1538 42.8146 92.3513 42.9964 92.4962C43.1783 92.641 43.4624 92.7618 43.8487 92.8584L44.8203 93.097C45.4055 93.2391 45.8416 93.4564 46.1286 93.749C46.4155 94.0388 46.5589 94.4124 46.5589 94.8697C46.5589 95.2447 46.451 95.58 46.2351 95.8754C46.022 96.1709 45.7237 96.4038 45.3402 96.5743C44.9567 96.7447 44.5107 96.83 44.0021 96.83C43.3345 96.83 42.782 96.6851 42.3445 96.3953C41.907 96.1055 41.63 95.6822 41.5135 95.1254L42.468 94.8868C42.5589 95.2391 42.7308 95.5033 42.9837 95.6794C43.2393 95.8555 43.5732 95.9436 43.9851 95.9436C44.4538 95.9436 44.826 95.8442 45.1016 95.6453C45.38 95.4436 45.5192 95.2021 45.5192 94.9209C45.5192 94.6936 45.4396 94.5033 45.2805 94.3499C45.1214 94.1936 44.8771 94.0771 44.5476 94.0004L43.4567 93.7447C42.8572 93.6027 42.4169 93.3825 42.1357 93.0842C41.8572 92.7831 41.718 92.4067 41.718 91.955C41.718 91.5856 41.8217 91.2589 42.0291 90.9749C42.2393 90.6908 42.5249 90.4678 42.8857 90.3058C43.2493 90.1439 43.6612 90.0629 44.1214 90.0629C44.7692 90.0629 45.2777 90.205 45.647 90.4891C46.0192 90.7731 46.2834 91.1481 46.4396 91.6141ZM48.0728 96.6936V90.1481H49.0444V91.1709H49.1296C49.266 90.8214 49.4862 90.5501 49.7901 90.357C50.0941 90.1609 50.4592 90.0629 50.8853 90.0629C51.3171 90.0629 51.6765 90.1609 51.9634 90.357C52.2532 90.5501 52.479 90.8214 52.641 91.1709H52.7092C52.8768 90.8328 53.1282 90.5643 53.4634 90.3655C53.7987 90.1638 54.2006 90.0629 54.6694 90.0629C55.2546 90.0629 55.7333 90.2462 56.1055 90.6126C56.4776 90.9763 56.6637 91.543 56.6637 92.3129V96.6936H55.658V92.3129C55.658 91.83 55.5259 91.4848 55.2617 91.2774C54.9975 91.07 54.6864 90.9663 54.3285 90.9663C53.8683 90.9663 53.5117 91.1055 53.2589 91.3839C53.006 91.6595 52.8796 92.0089 52.8796 92.4322V96.6936H51.8569V92.2106C51.8569 91.8385 51.7362 91.5388 51.4947 91.3115C51.2532 91.0814 50.9421 90.9663 50.5614 90.9663C50.3001 90.9663 50.0558 91.0359 49.8285 91.1751C49.604 91.3143 49.4222 91.5075 49.283 91.7547C49.1467 91.999 49.0785 92.2817 49.0785 92.6027V96.6936H48.0728ZM61.1616 96.83C60.5707 96.83 60.0522 96.6893 59.6062 96.4081C59.163 96.1268 58.8164 95.7334 58.5664 95.2277C58.3192 94.722 58.1957 94.1311 58.1957 93.455C58.1957 92.7731 58.3192 92.178 58.5664 91.6695C58.8164 91.1609 59.163 90.766 59.6062 90.4848C60.0522 90.2035 60.5707 90.0629 61.1616 90.0629C61.7525 90.0629 62.2695 90.2035 62.7127 90.4848C63.1587 90.766 63.5053 91.1609 63.7525 91.6695C64.0025 92.178 64.1275 92.7731 64.1275 93.455C64.1275 94.1311 64.0025 94.722 63.7525 95.2277C63.5053 95.7334 63.1587 96.1268 62.7127 96.4081C62.2695 96.6893 61.7525 96.83 61.1616 96.83ZM61.1616 95.9266C61.6104 95.9266 61.9798 95.8115 62.2695 95.5814C62.5593 95.3513 62.7738 95.0487 62.913 94.6737C63.0522 94.2987 63.1218 93.8925 63.1218 93.455C63.1218 93.0175 63.0522 92.6098 62.913 92.232C62.7738 91.8541 62.5593 91.5487 62.2695 91.3158C61.9798 91.0828 61.6104 90.9663 61.1616 90.9663C60.7127 90.9663 60.3434 91.0828 60.0536 91.3158C59.7638 91.5487 59.5494 91.8541 59.4102 92.232C59.271 92.6098 59.2013 93.0175 59.2013 93.455C59.2013 93.8925 59.271 94.2987 59.4102 94.6737C59.5494 95.0487 59.7638 95.3513 60.0536 95.5814C60.3434 95.8115 60.7127 95.9266 61.1616 95.9266ZM69.7876 94.0175V90.1481H70.7933V96.6936H69.7876V95.5856H69.7195C69.5661 95.918 69.3274 96.2007 69.0036 96.4337C68.6797 96.6638 68.2706 96.7788 67.7763 96.7788C67.3672 96.7788 67.0036 96.6893 66.6854 96.5104C66.3672 96.3285 66.1172 96.0558 65.9354 95.6922C65.7536 95.3257 65.6626 94.8641 65.6626 94.3072V90.1481H66.6683V94.2391C66.6683 94.7163 66.8018 95.097 67.0689 95.3811C67.3388 95.6652 67.6825 95.8072 68.1001 95.8072C68.3501 95.8072 68.6044 95.7433 68.8629 95.6155C69.1243 95.4876 69.343 95.2916 69.5192 95.0274C69.6982 94.7632 69.7876 94.4266 69.7876 94.0175ZM73.641 92.7561V96.6936H72.6353V90.1481H73.6069V91.1709H73.6921C73.8455 90.8385 74.0785 90.5714 74.391 90.3697C74.7035 90.1652 75.1069 90.0629 75.6012 90.0629C76.0444 90.0629 76.4322 90.1538 76.7646 90.3356C77.0969 90.5146 77.3555 90.7874 77.5401 91.1538C77.7248 91.5175 77.8171 91.9777 77.8171 92.5345V96.6936H76.8114V92.6027C76.8114 92.0885 76.6779 91.6879 76.4109 91.401C76.1438 91.1112 75.7773 90.9663 75.3114 90.9663C74.9904 90.9663 74.7035 91.0359 74.4506 91.1751C74.2006 91.3143 74.0032 91.5175 73.8583 91.7845C73.7134 92.0516 73.641 92.3754 73.641 92.7561ZM82.5014 90.1481V91.0004H79.1094V90.1481H82.5014ZM80.098 88.58H81.1037V94.8186C81.1037 95.1027 81.1449 95.3158 81.2273 95.4578C81.3125 95.597 81.4205 95.6908 81.5511 95.7391C81.6847 95.7845 81.8253 95.8072 81.973 95.8072C82.0838 95.8072 82.1747 95.8016 82.2457 95.7902C82.3168 95.776 82.3736 95.7646 82.4162 95.7561L82.6207 96.6595C82.5526 96.6851 82.4574 96.7106 82.3352 96.7362C82.2131 96.7646 82.0582 96.7788 81.8707 96.7788C81.5866 96.7788 81.3082 96.7178 81.0355 96.5956C80.7656 96.4734 80.5412 96.2874 80.3622 96.0374C80.1861 95.7874 80.098 95.472 80.098 95.0913V88.58ZM89.8778 87.9663H90.9347V93.7447C90.9347 94.3413 90.794 94.874 90.5128 95.3428C90.2344 95.8087 89.8409 96.1766 89.3324 96.4464C88.8239 96.7135 88.2273 96.847 87.5426 96.847C86.858 96.847 86.2614 96.7135 85.7528 96.4464C85.2443 96.1766 84.8494 95.8087 84.5682 95.3428C84.2898 94.874 84.1506 94.3413 84.1506 93.7447V87.9663H85.2074V93.6595C85.2074 94.0856 85.3011 94.4649 85.4886 94.7973C85.6761 95.1268 85.9432 95.3868 86.2898 95.5771C86.6392 95.7646 87.0568 95.8584 87.5426 95.8584C88.0284 95.8584 88.446 95.7646 88.7955 95.5771C89.1449 95.3868 89.4119 95.1268 89.5966 94.7973C89.7841 94.4649 89.8778 94.0856 89.8778 93.6595V87.9663ZM95.7553 90.1481V91.0004H92.3633V90.1481H95.7553ZM93.3519 88.58H94.3576V94.8186C94.3576 95.1027 94.3988 95.3158 94.4812 95.4578C94.5664 95.597 94.6744 95.6908 94.805 95.7391C94.9386 95.7845 95.0792 95.8072 95.2269 95.8072C95.3377 95.8072 95.4286 95.8016 95.4996 95.7902C95.5707 95.776 95.6275 95.7646 95.6701 95.7561L95.8746 96.6595C95.8065 96.6851 95.7113 96.7106 95.5891 96.7362C95.467 96.7646 95.3121 96.7788 95.1246 96.7788C94.8406 96.7788 94.5621 96.7178 94.2894 96.5956C94.0195 96.4734 93.7951 96.2874 93.6161 96.0374C93.44 95.7874 93.3519 95.472 93.3519 95.0913V88.58ZM97.2681 96.6936V90.1481H98.2738V96.6936H97.2681ZM97.7795 89.0572C97.5835 89.0572 97.4144 88.9905 97.2724 88.857C97.1332 88.7234 97.0636 88.5629 97.0636 88.3754C97.0636 88.1879 97.1332 88.0274 97.2724 87.8939C97.4144 87.7604 97.5835 87.6936 97.7795 87.6936C97.9755 87.6936 98.1431 87.7604 98.2823 87.8939C98.4244 88.0274 98.4954 88.1879 98.4954 88.3754C98.4954 88.5629 98.4244 88.7234 98.2823 88.857C98.1431 88.9905 97.9755 89.0572 97.7795 89.0572ZM101.121 87.9663V96.6936H100.116V87.9663H101.121ZM102.963 96.6936V90.1481H103.969V96.6936H102.963ZM103.475 89.0572C103.279 89.0572 103.11 88.9905 102.968 88.857C102.828 88.7234 102.759 88.5629 102.759 88.3754C102.759 88.1879 102.828 88.0274 102.968 87.8939C103.11 87.7604 103.279 87.6936 103.475 87.6936C103.671 87.6936 103.838 87.7604 103.978 87.8939C104.12 88.0274 104.191 88.1879 104.191 88.3754C104.191 88.5629 104.12 88.7234 103.978 88.857C103.838 88.9905 103.671 89.0572 103.475 89.0572ZM108.658 90.1481V91.0004H105.266V90.1481H108.658ZM106.254 88.58H107.26V94.8186C107.26 95.1027 107.301 95.3158 107.384 95.4578C107.469 95.597 107.577 95.6908 107.707 95.7391C107.841 95.7845 107.982 95.8072 108.129 95.8072C108.24 95.8072 108.331 95.8016 108.402 95.7902C108.473 95.776 108.53 95.7646 108.572 95.7561L108.777 96.6595C108.709 96.6851 108.614 96.7106 108.491 96.7362C108.369 96.7646 108.214 96.7788 108.027 96.7788C107.743 96.7788 107.464 96.7178 107.192 96.5956C106.922 96.4734 106.697 96.2874 106.518 96.0374C106.342 95.7874 106.254 95.472 106.254 95.0913V88.58ZM110.818 99.1481C110.648 99.1481 110.496 99.1339 110.362 99.1055C110.229 99.08 110.136 99.0544 110.085 99.0288L110.341 98.1425C110.585 98.205 110.801 98.2277 110.989 98.2106C111.176 98.1936 111.342 98.1098 111.487 97.9592C111.635 97.8115 111.77 97.5714 111.892 97.2391L112.08 96.7277L109.659 90.1481H110.75L112.557 95.3641H112.625L114.432 90.1481H115.523L112.744 97.6481C112.619 97.9862 112.464 98.266 112.28 98.4876C112.095 98.7121 111.881 98.8783 111.636 98.9862C111.395 99.0942 111.122 99.1481 110.818 99.1481ZM119.256 87.5572L116.443 98.0061H115.523L118.335 87.5572H119.256ZM126.226 93.6254L120.738 96.4209V95.33L124.948 93.3016L124.914 93.3697V93.1993L124.948 93.2675L120.738 91.2391V90.1481L126.226 92.9436V93.6254Z" fill="#3191DF"/>
</svg>
